<?xml version="1.0" encoding="utf-8"?>
<!-- Generator: Adobe Illustrator 25.0.0, SVG Export Plug-In . SVG Version: 6.00 Build 0)  -->
<svg version="1.1" id="Camada_1" xmlns="http://www.w3.org/2000/svg" xmlns:xlink="http://www.w3.org/1999/xlink" x="0px" y="0px"
	 viewBox="0 0 350.7 579.1" style="enable-background:new 0 0 350.7 579.1;" xml:space="preserve">
<style type="text/css">
	.st0{fill:#353549;}
	.st1{fill:#99FF61;}
	.st2{fill:#4C4C4E;}
	.st3{font-family:'Poppins-Medium';}
	.st4{font-size:71.4781px;}
	.st5{font-family:'Poppins-Light';}
</style>
<g id="Ponta_flecha">
	<path class="st0" d="M175.3,0.1l0.1,220.5l99.3,77.1c10.4,5.4,21.9-5.1,17.5-15.9L175.3,0.1z"/>
	<path class="st1" d="M175.4,220.6l-97.9,78c-10.4,5.4-21.9-5.1-17.5-15.9L175.3,0.1L175.4,220.6z"/>
</g>
<g id="TOTTINHO">
	<g>
		<text transform="matrix(1 0 0 1 3.9656 403.6836)" class="st2 st3 st4">Ber</text>
	</g>
	<text transform="matrix(0.9082 0 0 1 229.0515 403.4746)" class="st2 st5 st4">totti</text>
</g>
<path id="Seta_baixo" class="st0" d="M163.6,268.7l-41,33c-5.5,4.5-8.1,11.7-6.6,18.6l55.1,255c1,4.4,7.2,4.4,8.2,0l57.2-254.9
	c1.6-7.1-1.1-14.5-6.9-19l-42.8-33C180,263.2,170.4,263.3,163.6,268.7z"/>
<g id="GUIAS">
</g>
</svg>
